<svg width="53" height="103" viewBox="0 0 53 103" fill="none" xmlns="http://www.w3.org/2000/svg">
<path d="M23.3953 27.16C23.3953 27.6667 23.2086 28.1067 22.8353 28.48C22.4886 28.8267 22.062 29 21.5553 29H20.0353C19.0753 29 18.1953 28.76 17.3953 28.28C16.5953 27.8 15.9553 27.16 15.4753 26.36C14.9953 25.56 14.7553 24.68 14.7553 23.72V18.36C14.7553 18.04 14.582 17.88 14.2353 17.88H13.6353C13.1286 17.88 12.6886 17.7067 12.3153 17.36C11.9686 16.9867 11.7953 16.5467 11.7953 16.04V14.92C11.7953 14.4133 11.9686 13.9867 12.3153 13.64C12.6886 13.2667 13.1286 13.08 13.6353 13.08H14.2353C14.582 13.08 14.7553 12.9067 14.7553 12.56V7.24C14.7553 6.28 14.9953 5.4 15.4753 4.6C15.9553 3.8 16.5953 3.16 17.3953 2.68C18.1953 2.2 19.0753 1.96 20.0353 1.96H21.5553C22.062 1.96 22.4886 2.13333 22.8353 2.48C23.2086 2.82667 23.3953 3.26666 23.3953 3.8V4.88C23.3953 5.38666 23.2086 5.81333 22.8353 6.16C22.4886 6.50667 22.062 6.68 21.5553 6.68H20.0353C19.902 6.68 19.7686 6.74667 19.6353 6.88C19.5286 6.98667 19.4753 7.10667 19.4753 7.24V13.64C19.4753 13.9067 19.4486 14.16 19.3953 14.4C19.3686 14.6133 19.3286 14.84 19.2753 15.08C19.142 15.32 19.142 15.5867 19.2753 15.88C19.3286 16.12 19.3686 16.36 19.3953 16.6C19.4486 16.8133 19.4753 17.0533 19.4753 17.32V23.72C19.4753 23.8533 19.5286 23.9867 19.6353 24.12C19.7686 24.2267 19.902 24.28 20.0353 24.28H21.5553C22.062 24.28 22.4886 24.4533 22.8353 24.8C23.2086 25.12 23.3953 25.5333 23.3953 26.04V27.16ZM40.2 16.04C40.2 16.5467 40.0133 16.9867 39.64 17.36C39.2933 17.7067 38.8667 17.88 38.36 17.88H37.76C37.4133 17.88 37.24 18.04 37.24 18.36V23.72C37.24 24.68 37 25.56 36.52 26.36C36.04 27.16 35.4 27.8 34.6 28.28C33.8267 28.76 32.9467 29 31.96 29H30.44C29.9333 29 29.4933 28.8267 29.12 28.48C28.7733 28.1067 28.6 27.6667 28.6 27.16V26.04C28.6 25.5333 28.7733 25.12 29.12 24.8C29.4933 24.4533 29.9333 24.28 30.44 24.28H31.96C32.0933 24.28 32.2133 24.2267 32.32 24.12C32.4533 23.9867 32.52 23.8533 32.52 23.72V17.32C32.52 16.84 32.6 16.36 32.76 15.88C32.84 15.5867 32.84 15.32 32.76 15.08C32.6 14.6 32.52 14.12 32.52 13.64V7.24C32.52 7.10667 32.4533 6.98667 32.32 6.88C32.2133 6.74667 32.0933 6.68 31.96 6.68H30.44C29.9333 6.68 29.4933 6.50667 29.12 6.16C28.7733 5.81333 28.6 5.38666 28.6 4.88V3.8C28.6 3.26666 28.7733 2.82667 29.12 2.48C29.4933 2.13333 29.9333 1.96 30.44 1.96H31.96C32.9467 1.96 33.8267 2.2 34.6 2.68C35.4 3.16 36.04 3.8 36.52 4.6C37 5.4 37.24 6.28 37.24 7.24V12.56C37.24 12.9067 37.4133 13.08 37.76 13.08H38.36C38.8667 13.08 39.2933 13.2667 39.64 13.64C40.0133 13.9867 40.2 14.4133 40.2 14.92V16.04Z" fill="#2C3646"/>
<path d="M15.0908 43.44C15.3841 44.1867 15.2641 44.8533 14.7308 45.44L7.81078 52.28C7.57078 52.5733 7.57078 52.8133 7.81078 53L14.6508 59.88C15.2374 60.4667 15.3841 61.1333 15.0908 61.88C14.9574 62.2 14.7308 62.4667 14.4108 62.68C14.0908 62.8933 13.7441 63 13.3708 63H11.8508C11.3174 63 10.8908 62.8133 10.5708 62.44L2.57078 54.48C2.22411 54.1333 2.05078 53.7067 2.05078 53.2V52.08C2.05078 51.6267 2.22411 51.2 2.57078 50.8L10.5708 42.84C10.8908 42.4667 11.3174 42.28 11.8508 42.28H13.4108C13.7841 42.28 14.1174 42.3867 14.4108 42.6C14.7308 42.8133 14.9574 43.0933 15.0908 43.44ZM28.858 61.16C28.858 61.6667 28.6713 62.1067 28.298 62.48C27.9513 62.8267 27.5246 63 27.018 63H25.898C25.3913 63 24.9513 62.8267 24.578 62.48C24.2313 62.1067 24.058 61.6667 24.058 61.16V37.8C24.058 37.2667 24.2313 36.8267 24.578 36.48C24.9513 36.1333 25.3913 35.96 25.898 35.96H27.018C27.5246 35.96 27.9513 36.1333 28.298 36.48C28.6713 36.8267 28.858 37.2667 28.858 37.8V61.16ZM50.9039 53.2C50.9039 53.7333 50.7306 54.16 50.3839 54.48L42.4239 62.44C41.9972 62.8133 41.5572 63 41.1039 63H39.5439C39.1972 63 38.8639 62.8933 38.5439 62.68C38.2506 62.4667 38.0239 62.2 37.8639 61.88C37.5706 61.16 37.7039 60.4933 38.2639 59.88L45.1039 53C45.3972 52.8133 45.3972 52.5733 45.1039 52.28L38.2639 45.44C37.6772 44.9067 37.5439 44.24 37.8639 43.44C37.9972 43.0933 38.2239 42.8133 38.5439 42.6C38.8639 42.3867 39.1972 42.28 39.5439 42.28H41.1039C41.5572 42.28 41.9972 42.4667 42.4239 42.84L50.3839 50.8C50.7306 51.1467 50.9039 51.5733 50.9039 52.08V53.2Z" fill="#2C3646"/>
<path d="M21.9131 75.6L9.39313 99.04C9.04646 99.68 8.51313 100 7.79313 100H6.55313C5.85979 100 5.33979 99.7067 4.99313 99.12C4.67313 98.5333 4.65979 97.92 4.95313 97.28L17.4731 73.92C17.8198 73.28 18.3531 72.96 19.0731 72.96H20.3131C21.0065 72.96 21.5265 73.2533 21.8731 73.84C22.2198 74.4 22.2331 74.9867 21.9131 75.6ZM48.06 97.28C48.3533 97.92 48.34 98.5333 48.02 99.12C47.6733 99.7067 47.1533 100 46.46 100H45.22C44.5 100 43.9667 99.68 43.62 99.04L31.1 75.6C30.78 74.9867 30.7933 74.4 31.14 73.84C31.4867 73.2533 32.0067 72.96 32.7 72.96H33.94C34.66 72.96 35.1933 73.28 35.54 73.92L48.06 97.28Z" fill="#2C3646"/>
</svg>
