<svg width="37" height="65" viewBox="0 0 37 65" fill="none" xmlns="http://www.w3.org/2000/svg">
<path d="M16.6767 17.712C16.6767 18.0667 16.5461 18.3747 16.2847 18.636C16.0421 18.8787 15.7434 19 15.3887 19H14.3247C13.6527 19 13.0367 18.832 12.4767 18.496C11.9167 18.16 11.4687 17.712 11.1327 17.152C10.7967 16.592 10.6287 15.976 10.6287 15.304V11.552C10.6287 11.328 10.5074 11.216 10.2647 11.216H9.84472C9.49005 11.216 9.18205 11.0947 8.92072 10.852C8.67805 10.5907 8.55672 10.2827 8.55672 9.928V9.144C8.55672 8.78933 8.67805 8.49067 8.92072 8.248C9.18205 7.98667 9.49005 7.856 9.84472 7.856H10.2647C10.5074 7.856 10.6287 7.73467 10.6287 7.492V3.768C10.6287 3.096 10.7967 2.48 11.1327 1.92C11.4687 1.36 11.9167 0.911999 12.4767 0.575999C13.0367 0.239998 13.6527 0.0719984 14.3247 0.0719984H15.3887C15.7434 0.0719984 16.0421 0.193332 16.2847 0.435999C16.5461 0.678666 16.6767 0.986665 16.6767 1.36V2.116C16.6767 2.47067 16.5461 2.76933 16.2847 3.012C16.0421 3.25467 15.7434 3.376 15.3887 3.376H14.3247C14.2314 3.376 14.1381 3.42267 14.0447 3.516C13.9701 3.59067 13.9327 3.67467 13.9327 3.768V8.248C13.9327 8.43467 13.9141 8.612 13.8767 8.78C13.8581 8.92933 13.8301 9.088 13.7927 9.256C13.6994 9.424 13.6994 9.61067 13.7927 9.816C13.8301 9.984 13.8581 10.152 13.8767 10.32C13.9141 10.4693 13.9327 10.6373 13.9327 10.824V15.304C13.9327 15.3973 13.9701 15.4907 14.0447 15.584C14.1381 15.6587 14.2314 15.696 14.3247 15.696H15.3887C15.7434 15.696 16.0421 15.8173 16.2847 16.06C16.5461 16.284 16.6767 16.5733 16.6767 16.928V17.712ZM28.44 9.928C28.44 10.2827 28.3093 10.5907 28.048 10.852C27.8053 11.0947 27.5067 11.216 27.152 11.216H26.732C26.4893 11.216 26.368 11.328 26.368 11.552V15.304C26.368 15.976 26.2 16.592 25.864 17.152C25.528 17.712 25.08 18.16 24.52 18.496C23.9787 18.832 23.3627 19 22.672 19H21.608C21.2533 19 20.9453 18.8787 20.684 18.636C20.4413 18.3747 20.32 18.0667 20.32 17.712V16.928C20.32 16.5733 20.4413 16.284 20.684 16.06C20.9453 15.8173 21.2533 15.696 21.608 15.696H22.672C22.7653 15.696 22.8493 15.6587 22.924 15.584C23.0173 15.4907 23.064 15.3973 23.064 15.304V10.824C23.064 10.488 23.12 10.152 23.232 9.816C23.288 9.61067 23.288 9.424 23.232 9.256C23.12 8.92 23.064 8.584 23.064 8.248V3.768C23.064 3.67467 23.0173 3.59067 22.924 3.516C22.8493 3.42267 22.7653 3.376 22.672 3.376H21.608C21.2533 3.376 20.9453 3.25467 20.684 3.012C20.4413 2.76933 20.32 2.47067 20.32 2.116V1.36C20.32 0.986665 20.4413 0.678666 20.684 0.435999C20.9453 0.193332 21.2533 0.0719984 21.608 0.0719984H22.672C23.3627 0.0719984 23.9787 0.239998 24.52 0.575999C25.08 0.911999 25.528 1.36 25.864 1.92C26.2 2.48 26.368 3.096 26.368 3.768V7.492C26.368 7.73467 26.4893 7.856 26.732 7.856H27.152C27.5067 7.856 27.8053 7.98667 28.048 8.248C28.3093 8.49067 28.44 8.78933 28.44 9.144V9.928Z" fill="white"/>
<path d="M10.5135 28.308C10.7189 28.8307 10.6349 29.2973 10.2615 29.708L5.41755 34.496C5.24955 34.7013 5.24955 34.8693 5.41755 35L10.2055 39.816C10.6162 40.2267 10.7189 40.6933 10.5135 41.216C10.4202 41.44 10.2615 41.6267 10.0375 41.776C9.81355 41.9253 9.57088 42 9.30955 42H8.24555C7.87221 42 7.57355 41.8693 7.34955 41.608L1.74955 36.036C1.50688 35.7933 1.38555 35.4947 1.38555 35.14V34.356C1.38555 34.0387 1.50688 33.74 1.74955 33.46L7.34955 27.888C7.57355 27.6267 7.87221 27.496 8.24555 27.496H9.33755C9.59888 27.496 9.83221 27.5707 10.0375 27.72C10.2615 27.8693 10.4202 28.0653 10.5135 28.308ZM20.1506 40.712C20.1506 41.0667 20.0199 41.3747 19.7586 41.636C19.5159 41.8787 19.2172 42 18.8626 42H18.0786C17.7239 42 17.4159 41.8787 17.1546 41.636C16.9119 41.3747 16.7906 41.0667 16.7906 40.712V24.36C16.7906 23.9867 16.9119 23.6787 17.1546 23.436C17.4159 23.1933 17.7239 23.072 18.0786 23.072H18.8626C19.2172 23.072 19.5159 23.1933 19.7586 23.436C20.0199 23.6787 20.1506 23.9867 20.1506 24.36V40.712ZM35.5827 35.14C35.5827 35.5133 35.4614 35.812 35.2187 36.036L29.6467 41.608C29.3481 41.8693 29.0401 42 28.7227 42H27.6307C27.3881 42 27.1547 41.9253 26.9307 41.776C26.7254 41.6267 26.5667 41.44 26.4547 41.216C26.2494 40.712 26.3427 40.2453 26.7347 39.816L31.5227 35C31.7281 34.8693 31.7281 34.7013 31.5227 34.496L26.7347 29.708C26.3241 29.3347 26.2307 28.868 26.4547 28.308C26.5481 28.0653 26.7067 27.8693 26.9307 27.72C27.1547 27.5707 27.3881 27.496 27.6307 27.496H28.7227C29.0401 27.496 29.3481 27.6267 29.6467 27.888L35.2187 33.46C35.4614 33.7027 35.5827 34.0013 35.5827 34.356V35.14Z" fill="white"/>
<path d="M15.2892 47.92L6.52519 64.328C6.28252 64.776 5.90919 65 5.40519 65H4.53719C4.05186 65 3.68786 64.7947 3.44519 64.384C3.22119 63.9733 3.21186 63.544 3.41719 63.096L12.1812 46.744C12.4239 46.296 12.7972 46.072 13.3012 46.072H14.1692C14.6545 46.072 15.0185 46.2773 15.2612 46.688C15.5039 47.08 15.5132 47.4907 15.2892 47.92ZM33.592 63.096C33.7973 63.544 33.788 63.9733 33.564 64.384C33.3213 64.7947 32.9573 65 32.472 65H31.604C31.1 65 30.7267 64.776 30.484 64.328L21.72 47.92C21.496 47.4907 21.5053 47.08 21.748 46.688C21.9907 46.2773 22.3547 46.072 22.84 46.072H23.708C24.212 46.072 24.5853 46.296 24.828 46.744L33.592 63.096Z" fill="white"/>
</svg>
