<svg width="24" height="24" viewBox="0 0 24 24" fill="none" xmlns="http://www.w3.org/2000/svg">
<path d="M23.4002 22.8006H21.6003V9.00836C21.6003 8.84931 21.5371 8.69679 21.4246 8.58433C21.3121 8.47187 21.1595 8.40869 21.0004 8.40869H17.4006C17.2415 8.40869 17.0889 8.47187 16.9764 8.58433C16.8639 8.69679 16.8007 8.84931 16.8007 9.00836V22.8006H14.4009V13.8057C14.4009 13.6466 14.3377 13.4941 14.2251 13.3816C14.1126 13.2692 13.96 13.206 13.8009 13.206H10.2012C10.0421 13.206 9.88946 13.2692 9.77695 13.3816C9.66443 13.4941 9.60122 13.6466 9.60122 13.8057V22.8006H7.20141V15.005C7.20141 14.846 7.1382 14.6934 7.02568 14.581C6.91317 14.4685 6.76057 14.4053 6.60145 14.4053H3.00173C2.84261 14.4053 2.69001 14.4685 2.57749 14.581C2.46498 14.6934 2.40177 14.846 2.40177 15.005V22.8006H0.601908C0.44279 22.8006 0.290189 22.8638 0.177676 22.9763C0.0651625 23.0887 0.00195313 23.2413 0.00195312 23.4003C0.00195313 23.5593 0.0651625 23.7119 0.177676 23.8243C0.290189 23.9368 0.44279 24 0.601908 24H23.4002C23.5593 24 23.7119 23.9368 23.8244 23.8243C23.9369 23.7119 24.0001 23.5593 24.0001 23.4003C24.0001 23.2413 23.9369 23.0887 23.8244 22.9763C23.7119 22.8638 23.5593 22.8006 23.4002 22.8006ZM6.0015 22.8006H3.60168V15.6047H6.0015V22.8006ZM13.201 22.8006H10.8011V14.4053H13.201V22.8006ZM20.4004 22.8006H18.0006V9.60802H20.4004V22.8006Z" fill="black"/>
<path d="M0.601777 13.206C0.680462 13.2069 0.758476 13.1914 0.830805 13.1605C0.903133 13.1295 0.968174 13.0837 1.02174 13.0261L6.66132 7.40124L11.041 10.6874C11.1557 10.7748 11.2986 10.8169 11.4424 10.8059C11.5862 10.7948 11.7209 10.7313 11.8209 10.6274L20.4003 2.06423V4.21103C20.4003 4.37007 20.4635 4.5226 20.576 4.63506C20.6885 4.74752 20.8411 4.81069 21.0002 4.81069C21.1593 4.81069 21.3119 4.74752 21.4245 4.63506C21.537 4.5226 21.6002 4.37007 21.6002 4.21103V0.613046C21.618 0.538136 21.618 0.460083 21.6002 0.385174C21.5697 0.299457 21.5206 0.221606 21.4562 0.15729C21.3919 0.0929734 21.314 0.0438107 21.2282 0.013382C21.1533 -0.00446067 21.0752 -0.00446067 21.0002 0.013382H17.4005C17.2414 0.013382 17.0888 0.0765608 16.9763 0.18902C16.8638 0.301478 16.8005 0.454005 16.8005 0.613046C16.8005 0.772087 16.8638 0.924614 16.9763 1.03707C17.0888 1.14953 17.2414 1.21271 17.4005 1.21271H19.5483L11.341 9.41611L6.96129 6.12996C6.84656 6.04259 6.70371 6.00043 6.5599 6.01149C6.41609 6.02254 6.28137 6.08605 6.18135 6.18992L0.181809 12.1866C0.124416 12.2404 0.0786728 12.3054 0.0474028 12.3776C0.0161329 12.4498 0 12.5277 0 12.6063C0 12.685 0.0161329 12.7628 0.0474028 12.835C0.0786728 12.9072 0.124416 12.9723 0.181809 13.0261C0.23538 13.0837 0.30042 13.1295 0.372749 13.1605C0.445077 13.1914 0.523092 13.2069 0.601777 13.206Z" fill="black"/>
</svg>
